<svg version="1.1" xmlns="http://www.w3.org/2000/svg" xmlns:xlink="http://www.w3.org/1999/xlink" width="938" height="2001"><defs></defs><g><g transform="translate(-10,2) scale(1,1)"><path fill="#C0C0C0" stroke="none" d="M 443 24.5 C 443 19.2532944 447.2532944 15 452.5 15 C 457.7467056 15 462 19.2532944 462 24.5 C 462 29.7467056 457.7467056 34 452.5 34 C 447.2532944 34 443 29.7467056 443 24.5 Z" opacity="0.2"></path></g><g transform="translate(-10,2) scale(1,1)"><path fill="#000000" stroke="none" d="M 436 17.5 C 436 12.2532944 440.2532944 8 445.5 8 C 450.7467056 8 455 12.2532944 455 17.5 C 455 22.7467056 450.7467056 27 445.5 27 C 440.2532944 27 436 22.7467056 436 17.5 Z"></path></g><g transform="translate(-10,2) scale(1,1)"><path fill="#C0C0C0" stroke="none" d="M 163 1052.5 L 174.5 1043 L 185 1052.5 L 174.5 1061 L 163 1052.5" opacity="0.2"></path></g><g transform="translate(-10,2) scale(1,1)"><path fill="#ffffff" stroke="none" d="M 156 1045 L 167 1036 L 178 1045 L 167 1054 L 156 1045"></path></g><g transform="translate(-10,2) scale(1,1)"><path fill="none" stroke="#000000" d="M 156 1045 L 167 1036 L 178 1045 L 167 1054 L 156 1045 L 156 1045" stroke-miterlimit="10"></path></g><g transform="translate(-10,2) scale(1,1)"><path fill="#C0C0C0" stroke="none" d="M 155 1280.5 L 166.5 1271 L 177 1280.5 L 166.5 1289 L 155 1280.5" opacity="0.2"></path></g><g transform="translate(-10,2) scale(1,1)"><path fill="#ffffff" stroke="none" d="M 148 1273 L 159 1264 L 170 1273 L 159 1282 L 148 1273"></path></g><g transform="translate(-10,2) scale(1,1)"><path fill="none" stroke="#000000" d="M 148 1273 L 159 1264 L 170 1273 L 159 1282 L 148 1273 L 148 1273" stroke-miterlimit="10"></path></g><g transform="translate(-10,2) scale(1,1)"><path fill="#C0C0C0" stroke="none" d="M 365 791 L 533 791 Q 543 791 543 801 L 543 820 Q 543 830 533 830 L 365 830 Q 355 830 355 820 L 355 801 Q 355 791 365 791 Z" opacity="0.2"></path></g><g transform="translate(-10,2) scale(1,1)"><path fill="#ffffff" stroke="none" d="M 358 784 L 526 784 Q 536 784 536 794 L 536 813 Q 536 823 526 823 L 358 823 Q 348 823 348 813 L 348 794 Q 348 784 358 784 Z"></path></g><g transform="translate(-10,2) scale(1,1)"><path fill="none" stroke="#000000" d="M 358 784 L 526 784 Q 536 784 536 794 L 536 813 Q 536 823 526 823 L 358 823 Q 348 823 348 813 L 348 794 Q 348 784 358 784 Z" stroke-miterlimit="10"></path></g><g transform="translate(-10,2) scale(1,1)"><g><path fill="none" stroke="none"></path><text fill="#000000" stroke="none" font-family="Arial" font-size="13px" font-style="normal" font-weight="bold" text-decoration="none" x="338" y="803.5">Byte aus Bitqueue in output_stream</text><text fill="#000000" stroke="none" font-family="Arial" font-size="13px" font-style="normal" font-weight="bold" text-decoration="none" x="414" y="816.5">schreiben</text></g></g><g transform="translate(-10,2) scale(1,1)"><path fill="#C0C0C0" stroke="none" d="M 413 63 L 503 63 Q 513 63 513 73 L 513 92 Q 513 102 503 102 L 413 102 Q 403 102 403 92 L 403 73 Q 403 63 413 63 Z" opacity="0.2"></path></g><g transform="translate(-10,2) scale(1,1)"><path fill="#ffffff" stroke="none" d="M 406 56 L 496 56 Q 506 56 506 66 L 506 85 Q 506 95 496 95 L 406 95 Q 396 95 396 85 L 396 66 Q 396 56 406 56 Z"></path></g><g transform="translate(-10,2) scale(1,1)"><path fill="none" stroke="#000000" d="M 406 56 L 496 56 Q 506 56 506 66 L 506 85 Q 506 95 496 95 L 406 95 Q 396 95 396 85 L 396 66 Q 396 56 406 56 Z" stroke-miterlimit="10"></path></g><g transform="translate(-10,2) scale(1,1)"><g><path fill="none" stroke="none"></path><text fill="#000000" stroke="none" font-family="Arial" font-size="13px" font-style="normal" font-weight="bold" text-decoration="none" x="404.5" y="75.5">code_length = 0</text></g></g><g transform="translate(-10,2) scale(1,1)"><path fill="#C0C0C0" stroke="none" d="M 405 123 L 506 123 Q 516 123 516 133 L 516 152 Q 516 162 506 162 L 405 162 Q 395 162 395 152 L 395 133 Q 395 123 405 123 Z" opacity="0.2"></path></g><g transform="translate(-10,2) scale(1,1)"><path fill="#ffffff" stroke="none" d="M 398 116 L 499 116 Q 509 116 509 126 L 509 145 Q 509 155 499 155 L 398 155 Q 388 155 388 145 L 388 126 Q 388 116 398 116 Z"></path></g><g transform="translate(-10,2) scale(1,1)"><path fill="none" stroke="#000000" d="M 398 116 L 499 116 Q 509 116 509 126 L 509 145 Q 509 155 499 155 L 398 155 Q 388 155 388 145 L 388 126 Q 388 116 398 116 Z" stroke-miterlimit="10"></path></g><g transform="translate(-10,2) scale(1,1)"><g><path fill="none" stroke="none"></path><text fill="#000000" stroke="none" font-family="Arial" font-size="13px" font-style="normal" font-weight="bold" text-decoration="none" x="396.5" y="135.5">queue_usage  = 0</text></g></g><g transform="translate(-10,2) scale(1,1)"><path fill="none" stroke="#000000" d="M 445.34482758620686 27 L 445.34482758620686 56" stroke-miterlimit="10"></path></g><g transform="translate(-10,2) scale(1,1)"><path fill="none" stroke="#000000" d="M 441.13530983019086 45.837325142375846 L 445.34482758620686 56 L 449.55434534222286 45.837325142375846" stroke-miterlimit="10"></path></g><g transform="translate(-10,2) scale(1,1)"><path fill="none" stroke="#000000" d="M 447.33333333333337 95 L 447.33333333333337 116" stroke-miterlimit="10"></path></g><g transform="translate(-10,2) scale(1,1)"><path fill="none" stroke="#000000" d="M 443.1238155773174 105.83732514237585 L 447.33333333333337 116 L 451.54285108934937 105.83732514237585" stroke-miterlimit="10"></path></g><g transform="translate(-10,2) scale(1,1)"><path fill="#C0C0C0" stroke="none" d="M 413 179 L 498 179 Q 508 179 508 189 L 508 208 Q 508 218 498 218 L 413 218 Q 403 218 403 208 L 403 189 Q 403 179 413 179 Z" opacity="0.2"></path></g><g transform="translate(-10,2) scale(1,1)"><path fill="#ffffff" stroke="none" d="M 406 172 L 491 172 Q 501 172 501 182 L 501 201 Q 501 211 491 211 L 406 211 Q 396 211 396 201 L 396 182 Q 396 172 406 172 Z"></path></g><g transform="translate(-10,2) scale(1,1)"><path fill="none" stroke="#000000" d="M 406 172 L 491 172 Q 501 172 501 182 L 501 201 Q 501 211 491 211 L 406 211 Q 396 211 396 201 L 396 182 Q 396 172 406 172 Z" stroke-miterlimit="10"></path></g><g transform="translate(-10,2) scale(1,1)"><g><path fill="none" stroke="none"></path><text fill="#000000" stroke="none" font-family="Arial" font-size="13px" font-style="normal" font-weight="bold" text-decoration="none" x="413.5" y="191.5">state = char</text></g></g><g transform="translate(-10,2) scale(1,1)"><path fill="#C0C0C0" stroke="none" d="M 369 863 L 527 863 Q 537 863 537 873 L 537 892 Q 537 902 527 902 L 369 902 Q 359 902 359 892 L 359 873 Q 359 863 369 863 Z" opacity="0.2"></path></g><g transform="translate(-10,2) scale(1,1)"><path fill="#ffffff" stroke="none" d="M 362 856 L 520 856 Q 530 856 530 866 L 530 885 Q 530 895 520 895 L 362 895 Q 352 895 352 885 L 352 866 Q 352 856 362 856 Z"></path></g><g transform="translate(-10,2) scale(1,1)"><path fill="none" stroke="#000000" d="M 362 856 L 520 856 Q 530 856 530 866 L 530 885 Q 530 895 520 895 L 362 895 Q 352 895 352 885 L 352 866 Q 352 856 362 856 Z" stroke-miterlimit="10"></path></g><g transform="translate(-10,2) scale(1,1)"><g><path fill="none" stroke="none"></path><text fill="#000000" stroke="none" font-family="Arial" font-size="13px" font-style="normal" font-weight="bold" text-decoration="none" x="389" y="875.5">queue_usage  = 0</text></g></g><g transform="translate(-10,2) scale(1,1)"><path fill="#C0C0C0" stroke="none" d="M 435 1052.5 L 446.5 1043 L 457 1052.5 L 446.5 1061 L 435 1052.5" opacity="0.2"></path></g><g transform="translate(-10,2) scale(1,1)"><path fill="#ffffff" stroke="none" d="M 428 1045 L 439 1036 L 450 1045 L 439 1054 L 428 1045"></path></g><g transform="translate(-10,2) scale(1,1)"><path fill="none" stroke="#000000" d="M 428 1045 L 439 1036 L 450 1045 L 439 1054 L 428 1045 L 428 1045" stroke-miterlimit="10"></path></g><g transform="translate(-10,2) scale(1,1)"><path fill="#C0C0C0" stroke="none" d="M 419 1832.5 L 430.5 1823 L 441 1832.5 L 430.5 1841 L 419 1832.5" opacity="0.2"></path></g><g transform="translate(-10,2) scale(1,1)"><path fill="#ffffff" stroke="none" d="M 412 1825 L 423 1816 L 434 1825 L 423 1834 L 412 1825"></path></g><g transform="translate(-10,2) scale(1,1)"><path fill="none" stroke="#000000" d="M 412 1825 L 423 1816 L 434 1825 L 423 1834 L 412 1825 L 412 1825" stroke-miterlimit="10"></path></g><g transform="translate(-10,2) scale(1,1)"><path fill="#C0C0C0" stroke="none" d="M 109 1319 L 211 1319 Q 221 1319 221 1329 L 221 1348 Q 221 1358 211 1358 L 109 1358 Q 99 1358 99 1348 L 99 1329 Q 99 1319 109 1319 Z" opacity="0.2"></path></g><g transform="translate(-10,2) scale(1,1)"><path fill="#ffffff" stroke="none" d="M 102 1312 L 204 1312 Q 214 1312 214 1322 L 214 1341 Q 214 1351 204 1351 L 102 1351 Q 92 1351 92 1341 L 92 1322 Q 92 1312 102 1312 Z"></path></g><g transform="translate(-10,2) scale(1,1)"><path fill="none" stroke="#000000" d="M 102 1312 L 204 1312 Q 214 1312 214 1322 L 214 1341 Q 214 1351 204 1351 L 102 1351 Q 92 1351 92 1341 L 92 1322 Q 92 1312 102 1312 Z" stroke-miterlimit="10"></path></g><g transform="translate(-10,2) scale(1,1)"><g><path fill="none" stroke="none"></path><text fill="#000000" stroke="none" font-family="Arial" font-size="13px" font-style="normal" font-weight="bold" text-decoration="none" x="100.5" y="1331.5">Bit aus char lesen</text></g></g><g transform="translate(-10,2) scale(1,1)"><path fill="#C0C0C0" stroke="none" d="M 109 1499 L 201 1499 Q 211 1499 211 1509 L 211 1528 Q 211 1538 201 1538 L 109 1538 Q 99 1538 99 1528 L 99 1509 Q 99 1499 109 1499 Z" opacity="0.2"></path></g><g transform="translate(-10,2) scale(1,1)"><path fill="#ffffff" stroke="none" d="M 102 1492 L 194 1492 Q 204 1492 204 1502 L 204 1521 Q 204 1531 194 1531 L 102 1531 Q 92 1531 92 1521 L 92 1502 Q 92 1492 102 1492 Z"></path></g><g transform="translate(-10,2) scale(1,1)"><path fill="none" stroke="#000000" d="M 102 1492 L 194 1492 Q 204 1492 204 1502 L 204 1521 Q 204 1531 194 1531 L 102 1531 Q 92 1531 92 1521 L 92 1502 Q 92 1492 102 1492 Z" stroke-miterlimit="10"></path></g><g transform="translate(-10,2) scale(1,1)"><g><path fill="none" stroke="none"></path><text fill="#000000" stroke="none" font-family="Arial" font-size="13px" font-style="normal" font-weight="bold" text-decoration="none" x="118" y="1511.5">char &lt;&lt; 1 </text></g></g><g transform="translate(-10,2) scale(1,1)"><path fill="#C0C0C0" stroke="none" d="M 125 1559 L 195 1559 Q 205 1559 205 1569 L 205 1588 Q 205 1598 195 1598 L 125 1598 Q 115 1598 115 1588 L 115 1569 Q 115 1559 125 1559 Z" opacity="0.2"></path></g><g transform="translate(-10,2) scale(1,1)"><path fill="#ffffff" stroke="none" d="M 118 1552 L 188 1552 Q 198 1552 198 1562 L 198 1581 Q 198 1591 188 1591 L 118 1591 Q 108 1591 108 1581 L 108 1562 Q 108 1552 118 1552 Z"></path></g><g transform="translate(-10,2) scale(1,1)"><path fill="none" stroke="#000000" d="M 118 1552 L 188 1552 Q 198 1552 198 1562 L 198 1581 Q 198 1591 188 1591 L 118 1591 Q 108 1591 108 1581 L 108 1562 Q 108 1552 118 1552 Z" stroke-miterlimit="10"></path></g><g transform="translate(-10,2) scale(1,1)"><g><path fill="none" stroke="none"></path><text fill="#000000" stroke="none" font-family="Arial" font-size="13px" font-style="normal" font-weight="bold" text-decoration="none" x="115" y="1571.5">char_shift ++</text></g></g><g transform="translate(-10,2) scale(1,1)"><path fill="#C0C0C0" stroke="none" d="M 101 1115 L 240 1115 Q 250 1115 250 1125 L 250 1144 Q 250 1154 240 1154 L 101 1154 Q 91 1154 91 1144 L 91 1125 Q 91 1115 101 1115 Z" opacity="0.2"></path></g><g transform="translate(-10,2) scale(1,1)"><path fill="#ffffff" stroke="none" d="M 94 1108 L 233 1108 Q 243 1108 243 1118 L 243 1137 Q 243 1147 233 1147 L 94 1147 Q 84 1147 84 1137 L 84 1118 Q 84 1108 94 1108 Z"></path></g><g transform="translate(-10,2) scale(1,1)"><path fill="none" stroke="#000000" d="M 94 1108 L 233 1108 Q 243 1108 243 1118 L 243 1137 Q 243 1147 233 1147 L 94 1147 Q 84 1147 84 1137 L 84 1118 Q 84 1108 94 1108 Z" stroke-miterlimit="10"></path></g><g transform="translate(-10,2) scale(1,1)"><g><path fill="none" stroke="none"></path><text fill="#000000" stroke="none" font-family="Arial" font-size="13px" font-style="normal" font-weight="bold" text-decoration="none" x="125" y="1127.5">char einlesen</text></g></g><g transform="translate(-10,2) scale(1,1)"><path fill="#C0C0C0" stroke="none" d="M 137 1175 L 210 1175 Q 220 1175 220 1185 L 220 1204 Q 220 1214 210 1214 L 137 1214 Q 127 1214 127 1204 L 127 1185 Q 127 1175 137 1175 Z" opacity="0.2"></path></g><g transform="translate(-10,2) scale(1,1)"><path fill="#ffffff" stroke="none" d="M 130 1168 L 203 1168 Q 213 1168 213 1178 L 213 1197 Q 213 1207 203 1207 L 130 1207 Q 120 1207 120 1197 L 120 1178 Q 120 1168 130 1168 Z"></path></g><g transform="translate(-10,2) scale(1,1)"><path fill="none" stroke="#000000" d="M 130 1168 L 203 1168 Q 213 1168 213 1178 L 213 1197 Q 213 1207 203 1207 L 130 1207 Q 120 1207 120 1197 L 120 1178 Q 120 1168 130 1168 Z" stroke-miterlimit="10"></path></g><g transform="translate(-10,2) scale(1,1)"><g><path fill="none" stroke="none"></path><text fill="#000000" stroke="none" font-family="Arial" font-size="13px" font-style="normal" font-weight="bold" text-decoration="none" x="127" y="1187.5">char_shift = 0</text></g></g><g transform="translate(-10,2) scale(1,1)"><path fill="#C0C0C0" stroke="none" d="M 747 1056.5 L 758.5 1047 L 769 1056.5 L 758.5 1065 L 747 1056.5" opacity="0.2"></path></g><g transform="translate(-10,2) scale(1,1)"><path fill="#ffffff" stroke="none" d="M 740 1049 L 751 1040 L 762 1049 L 751 1058 L 740 1049"></path></g><g transform="translate(-10,2) scale(1,1)"><path fill="none" stroke="#000000" d="M 740 1049 L 751 1040 L 762 1049 L 751 1058 L 740 1049 L 740 1049" stroke-miterlimit="10"></path></g><g transform="translate(-10,2) scale(1,1)"><path fill="#C0C0C0" stroke="none" d="M 435 980.5 L 446.5 971 L 457 980.5 L 446.5 989 L 435 980.5" opacity="0.2"></path></g><g transform="translate(-10,2) scale(1,1)"><path fill="#ffffff" stroke="none" d="M 428 973 L 439 964 L 450 973 L 439 982 L 428 973"></path></g><g transform="translate(-10,2) scale(1,1)"><path fill="none" stroke="#000000" d="M 428 973 L 439 964 L 450 973 L 439 982 L 428 973 L 428 973" stroke-miterlimit="10"></path></g><g transform="translate(-10,2) scale(1,1)"><path fill="none" stroke="#000000" d="M 428 972 L 168 972 L 168 1036" stroke-miterlimit="10"></path></g><g transform="translate(-10,2) scale(1,1)"><path fill="none" stroke="#000000" d="M 163.790482243984 1025.837325142376 L 168 1036 L 172.209517756016 1025.837325142376" stroke-miterlimit="10"></path></g><g transform="translate(-10,2) scale(1,1)"><g><path fill="none" stroke="none"></path><text fill="#000000" stroke="none" font-family="Arial" font-size="13px" font-style="normal" font-weight="normal" text-decoration="none" x="170" y="993"> [state = char]</text></g></g><g transform="translate(-10,2) scale(1,1)"><path fill="none" stroke="#000000" d="M 440 982 L 440 1036" stroke-miterlimit="10"></path></g><g transform="translate(-10,2) scale(1,1)"><path fill="none" stroke="#000000" d="M 435.790482243984 1025.837325142376 L 440 1036 L 444.209517756016 1025.837325142376" stroke-miterlimit="10"></path></g><g transform="translate(-10,2) scale(1,1)"><g><path fill="none" stroke="none"></path><text fill="#000000" stroke="none" font-family="Arial" font-size="13px" font-style="normal" font-weight="normal" text-decoration="none" x="440" y="997"> [state = length]</text></g></g><g transform="translate(-10,2) scale(1,1)"><path fill="none" stroke="#000000" d="M 450 973 L 752 973 L 752 1040" stroke-miterlimit="10"></path></g><g transform="translate(-10,2) scale(1,1)"><path fill="none" stroke="#000000" d="M 747.790482243984 1029.837325142376 L 752 1040 L 756.209517756016 1029.837325142376" stroke-miterlimit="10"></path></g><g transform="translate(-10,2) scale(1,1)"><g><path fill="none" stroke="none"></path><text fill="#000000" stroke="none" font-family="Arial" font-size="13px" font-style="normal" font-weight="normal" text-decoration="none" x="754" y="997"> [state = code]</text></g></g><g transform="translate(-10,2) scale(1,1)"><path fill="none" stroke="#000000" d="M 156 1044 L 64 1044 L 64 1273 L 148 1273" stroke-miterlimit="10"></path></g><g transform="translate(-10,2) scale(1,1)"><path fill="none" stroke="#000000" d="M 137.83732514237585 1277.2095177560159 L 148 1273 L 137.83732514237585 1268.7904822439841" stroke-miterlimit="10"></path></g><g transform="translate(-10,2) scale(1,1)"><path fill="#C0C0C0" stroke="none" d="M 423 1272.5 L 434.5 1263 L 445 1272.5 L 434.5 1281 L 423 1272.5" opacity="0.2"></path></g><g transform="translate(-10,2) scale(1,1)"><path fill="#ffffff" stroke="none" d="M 416 1265 L 427 1256 L 438 1265 L 427 1274 L 416 1265"></path></g><g transform="translate(-10,2) scale(1,1)"><path fill="none" stroke="#000000" d="M 416 1265 L 427 1256 L 438 1265 L 427 1274 L 416 1265 L 416 1265" stroke-miterlimit="10"></path></g><g transform="translate(-10,2) scale(1,1)"><path fill="none" stroke="#000000" d="M 428 1045 L 280 1045 L 280 1264 L 416 1264" stroke-miterlimit="10"></path></g><g transform="translate(-10,2) scale(1,1)"><path fill="none" stroke="#000000" d="M 405.83732514237585 1268.2095177560159 L 416 1264 L 405.83732514237585 1259.7904822439841" stroke-miterlimit="10"></path></g><g transform="translate(-10,2) scale(1,1)"><path fill="#C0C0C0" stroke="none" d="M 751 1264.5 L 762.5 1255 L 773 1264.5 L 762.5 1273 L 751 1264.5" opacity="0.2"></path></g><g transform="translate(-10,2) scale(1,1)"><path fill="#ffffff" stroke="none" d="M 744 1257 L 755 1248 L 766 1257 L 755 1266 L 744 1257"></path></g><g transform="translate(-10,2) scale(1,1)"><path fill="none" stroke="#000000" d="M 744 1257 L 755 1248 L 766 1257 L 755 1266 L 744 1257 L 744 1257" stroke-miterlimit="10"></path></g><g transform="translate(-10,2) scale(1,1)"><path fill="none" stroke="#000000" d="M 740 1049 L 648 1049 L 648 1256 L 744 1256" stroke-miterlimit="10"></path></g><g transform="translate(-10,2) scale(1,1)"><path fill="none" stroke="#000000" d="M 733.8373251423759 1260.2095177560159 L 744 1256 L 733.8373251423758 1251.7904822439841" stroke-miterlimit="10"></path></g><g transform="translate(-10,2) scale(1,1)"><path fill="#C0C0C0" stroke="none" d="M 151 1636.5 L 162.5 1627 L 173 1636.5 L 162.5 1645 L 151 1636.5" opacity="0.2"></path></g><g transform="translate(-10,2) scale(1,1)"><path fill="#ffffff" stroke="none" d="M 144 1629 L 155 1620 L 166 1629 L 155 1638 L 144 1629"></path></g><g transform="translate(-10,2) scale(1,1)"><path fill="none" stroke="#000000" d="M 144 1629 L 155 1620 L 166 1629 L 155 1638 L 144 1629 L 144 1629" stroke-miterlimit="10"></path></g><g transform="translate(-10,2) scale(1,1)"><path fill="#C0C0C0" stroke="none" d="M 151 1824.5 L 162.5 1815 L 173 1824.5 L 162.5 1833 L 151 1824.5" opacity="0.2"></path></g><g transform="translate(-10,2) scale(1,1)"><path fill="#ffffff" stroke="none" d="M 144 1817 L 155 1808 L 166 1817 L 155 1826 L 144 1817"></path></g><g transform="translate(-10,2) scale(1,1)"><path fill="none" stroke="#000000" d="M 144 1817 L 155 1808 L 166 1817 L 155 1826 L 144 1817 L 144 1817" stroke-miterlimit="10"></path></g><g transform="translate(-10,2) scale(1,1)"><path fill="#C0C0C0" stroke="none" d="M 419 1636.5 L 430.5 1627 L 441 1636.5 L 430.5 1645 L 419 1636.5" opacity="0.2"></path></g><g transform="translate(-10,2) scale(1,1)"><path fill="#ffffff" stroke="none" d="M 412 1629 L 423 1620 L 434 1629 L 423 1638 L 412 1629"></path></g><g transform="translate(-10,2) scale(1,1)"><path fill="none" stroke="#000000" d="M 412 1629 L 423 1620 L 434 1629 L 423 1638 L 412 1629 L 412 1629" stroke-miterlimit="10"></path></g><g transform="translate(-10,2) scale(1,1)"><path fill="#C0C0C0" stroke="none" d="M 751 1632.5 L 762.5 1623 L 773 1632.5 L 762.5 1641 L 751 1632.5" opacity="0.2"></path></g><g transform="translate(-10,2) scale(1,1)"><path fill="#ffffff" stroke="none" d="M 744 1625 L 755 1616 L 766 1625 L 755 1634 L 744 1625"></path></g><g transform="translate(-10,2) scale(1,1)"><path fill="none" stroke="#000000" d="M 744 1625 L 755 1616 L 766 1625 L 755 1634 L 744 1625 L 744 1625" stroke-miterlimit="10"></path></g><g transform="translate(-10,2) scale(1,1)"><path fill="#C0C0C0" stroke="none" d="M 751 1888.5 L 762.5 1879 L 773 1888.5 L 762.5 1897 L 751 1888.5" opacity="0.2"></path></g><g transform="translate(-10,2) scale(1,1)"><path fill="#ffffff" stroke="none" d="M 744 1881 L 755 1872 L 766 1881 L 755 1890 L 744 1881"></path></g><g transform="translate(-10,2) scale(1,1)"><path fill="none" stroke="#000000" d="M 744 1881 L 755 1872 L 766 1881 L 755 1890 L 744 1881 L 744 1881" stroke-miterlimit="10"></path></g><g transform="translate(-10,2) scale(1,1)"><path fill="#C0C0C0" stroke="none" d="M 419 1936.5 L 430.5 1927 L 441 1936.5 L 430.5 1945 L 419 1936.5" opacity="0.2"></path></g><g transform="translate(-10,2) scale(1,1)"><path fill="#ffffff" stroke="none" d="M 412 1929 L 423 1920 L 434 1929 L 423 1938 L 412 1929"></path></g><g transform="translate(-10,2) scale(1,1)"><path fill="none" stroke="#000000" d="M 412 1929 L 423 1920 L 434 1929 L 423 1938 L 412 1929 L 412 1929" stroke-miterlimit="10"></path></g><g transform="translate(-10,2) scale(1,1)"><path fill="none" stroke="#000000" d="M 144 1628 L 52 1628 L 52 1816 L 144 1816" stroke-miterlimit="10"></path></g><g transform="translate(-10,2) scale(1,1)"><path fill="none" stroke="#000000" d="M 133.83732514237585 1820.2095177560159 L 144 1816 L 133.83732514237585 1811.7904822439841" stroke-miterlimit="10"></path></g><g transform="translate(-10,2) scale(1,1)"><path fill="none" stroke="#000000" d="M 412 1628 L 328 1628 L 328 1825 L 412 1825" stroke-miterlimit="10"></path></g><g transform="translate(-10,2) scale(1,1)"><path fill="none" stroke="#000000" d="M 401.83732514237585 1829.2095177560159 L 412 1825 L 401.83732514237585 1820.7904822439841" stroke-miterlimit="10"></path></g><g transform="translate(-10,2) scale(1,1)"><path fill="none" stroke="#000000" d="M 744 1625 L 648 1625 L 648 1880 L 744 1880" stroke-miterlimit="10"></path></g><g transform="translate(-10,2) scale(1,1)"><path fill="none" stroke="#000000" d="M 733.8373251423759 1884.2095177560159 L 744 1880 L 733.8373251423758 1875.7904822439841" stroke-miterlimit="10"></path></g><g transform="translate(-10,2) scale(1,1)"><path fill="#C0C0C0" stroke="none" d="M 125 1691 L 200 1691 Q 210 1691 210 1701 L 210 1720 Q 210 1730 200 1730 L 125 1730 Q 115 1730 115 1720 L 115 1701 Q 115 1691 125 1691 Z" opacity="0.2"></path></g><g transform="translate(-10,2) scale(1,1)"><path fill="#ffffff" stroke="none" d="M 118 1684 L 193 1684 Q 203 1684 203 1694 L 203 1713 Q 203 1723 193 1723 L 118 1723 Q 108 1723 108 1713 L 108 1694 Q 108 1684 118 1684 Z"></path></g><g transform="translate(-10,2) scale(1,1)"><path fill="none" stroke="#000000" d="M 118 1684 L 193 1684 Q 203 1684 203 1694 L 203 1713 Q 203 1723 193 1723 L 118 1723 Q 108 1723 108 1713 L 108 1694 Q 108 1684 118 1684 Z" stroke-miterlimit="10"></path></g><g transform="translate(-10,2) scale(1,1)"><g><path fill="none" stroke="none"></path><text fill="#000000" stroke="none" font-family="Arial" font-size="13px" font-style="normal" font-weight="bold" text-decoration="none" x="115.5" y="1703.5">state = length</text></g></g><g transform="translate(-10,2) scale(1,1)"><path fill="#C0C0C0" stroke="none" d="M 397 1683 L 463 1683 Q 473 1683 473 1693 L 473 1712 Q 473 1722 463 1722 L 397 1722 Q 387 1722 387 1712 L 387 1693 Q 387 1683 397 1683 Z" opacity="0.2"></path></g><g transform="translate(-10,2) scale(1,1)"><path fill="#ffffff" stroke="none" d="M 390 1676 L 456 1676 Q 466 1676 466 1686 L 466 1705 Q 466 1715 456 1715 L 390 1715 Q 380 1715 380 1705 L 380 1686 Q 380 1676 390 1676 Z"></path></g><g transform="translate(-10,2) scale(1,1)"><path fill="none" stroke="#000000" d="M 390 1676 L 456 1676 Q 466 1676 466 1686 L 466 1705 Q 466 1715 456 1715 L 390 1715 Q 380 1715 380 1705 L 380 1686 Q 380 1676 390 1676 Z" stroke-miterlimit="10"></path></g><g transform="translate(-10,2) scale(1,1)"><g><path fill="none" stroke="none"></path><text fill="#000000" stroke="none" font-family="Arial" font-size="13px" font-style="normal" font-weight="bold" text-decoration="none" x="386.5" y="1695.5">state = code</text></g></g><g transform="translate(-10,2) scale(1,1)"><path fill="#C0C0C0" stroke="none" d="M 729 1695 L 792 1695 Q 802 1695 802 1705 L 802 1724 Q 802 1734 792 1734 L 729 1734 Q 719 1734 719 1724 L 719 1705 Q 719 1695 729 1695 Z" opacity="0.2"></path></g><g transform="translate(-10,2) scale(1,1)"><path fill="#ffffff" stroke="none" d="M 722 1688 L 785 1688 Q 795 1688 795 1698 L 795 1717 Q 795 1727 785 1727 L 722 1727 Q 712 1727 712 1717 L 712 1698 Q 712 1688 722 1688 Z"></path></g><g transform="translate(-10,2) scale(1,1)"><path fill="none" stroke="#000000" d="M 722 1688 L 785 1688 Q 795 1688 795 1698 L 795 1717 Q 795 1727 785 1727 L 722 1727 Q 712 1727 712 1717 L 712 1698 Q 712 1688 722 1688 Z" stroke-miterlimit="10"></path></g><g transform="translate(-10,2) scale(1,1)"><g><path fill="none" stroke="none"></path><text fill="#000000" stroke="none" font-family="Arial" font-size="13px" font-style="normal" font-weight="bold" text-decoration="none" x="718.5" y="1707.5">state = char</text></g></g><g transform="translate(-10,2) scale(1,1)"><path fill="#C0C0C0" stroke="none" d="M 381 1107 L 506 1107 Q 516 1107 516 1117 L 516 1136 Q 516 1146 506 1146 L 381 1146 Q 371 1146 371 1136 L 371 1117 Q 371 1107 381 1107 Z" opacity="0.2"></path></g><g transform="translate(-10,2) scale(1,1)"><path fill="#ffffff" stroke="none" d="M 374 1100 L 499 1100 Q 509 1100 509 1110 L 509 1129 Q 509 1139 499 1139 L 374 1139 Q 364 1139 364 1129 L 364 1110 Q 364 1100 374 1100 Z"></path></g><g transform="translate(-10,2) scale(1,1)"><path fill="none" stroke="#000000" d="M 374 1100 L 499 1100 Q 509 1100 509 1110 L 509 1129 Q 509 1139 499 1139 L 374 1139 Q 364 1139 364 1129 L 364 1110 Q 364 1100 374 1100 Z" stroke-miterlimit="10"></path></g><g transform="translate(-10,2) scale(1,1)"><g><path fill="none" stroke="none"></path><text fill="#000000" stroke="none" font-family="Arial" font-size="13px" font-style="normal" font-weight="bold" text-decoration="none" x="375.5" y="1119.5">code_length einlesen</text></g></g><g transform="translate(-10,2) scale(1,1)"><path fill="#C0C0C0" stroke="none" d="M 409 1175 L 494 1175 Q 504 1175 504 1185 L 504 1204 Q 504 1214 494 1214 L 409 1214 Q 399 1214 399 1204 L 399 1185 Q 399 1175 409 1175 Z" opacity="0.2"></path></g><g transform="translate(-10,2) scale(1,1)"><path fill="#ffffff" stroke="none" d="M 402 1168 L 487 1168 Q 497 1168 497 1178 L 497 1197 Q 497 1207 487 1207 L 402 1207 Q 392 1207 392 1197 L 392 1178 Q 392 1168 402 1168 Z"></path></g><g transform="translate(-10,2) scale(1,1)"><path fill="none" stroke="#000000" d="M 402 1168 L 487 1168 Q 497 1168 497 1178 L 497 1197 Q 497 1207 487 1207 L 402 1207 Q 392 1207 392 1197 L 392 1178 Q 392 1168 402 1168 Z" stroke-miterlimit="10"></path></g><g transform="translate(-10,2) scale(1,1)"><g><path fill="none" stroke="none"></path><text fill="#000000" stroke="none" font-family="Arial" font-size="13px" font-style="normal" font-weight="bold" text-decoration="none" x="400" y="1187.5">length_shift = 0</text></g></g><g transform="translate(-10,2) scale(1,1)"><path fill="#C0C0C0" stroke="none" d="M 357 1311 L 509 1311 Q 519 1311 519 1321 L 519 1340 Q 519 1350 509 1350 L 357 1350 Q 347 1350 347 1340 L 347 1321 Q 347 1311 357 1311 Z" opacity="0.2"></path></g><g transform="translate(-10,2) scale(1,1)"><path fill="#ffffff" stroke="none" d="M 350 1304 L 502 1304 Q 512 1304 512 1314 L 512 1333 Q 512 1343 502 1343 L 350 1343 Q 340 1343 340 1333 L 340 1314 Q 340 1304 350 1304 Z"></path></g><g transform="translate(-10,2) scale(1,1)"><path fill="none" stroke="#000000" d="M 350 1304 L 502 1304 Q 512 1304 512 1314 L 512 1333 Q 512 1343 502 1343 L 350 1343 Q 340 1343 340 1333 L 340 1314 Q 340 1304 350 1304 Z" stroke-miterlimit="10"></path></g><g transform="translate(-10,2) scale(1,1)"><g><path fill="none" stroke="none"></path><text fill="#000000" stroke="none" font-family="Arial" font-size="13px" font-style="normal" font-weight="bold" text-decoration="none" x="351" y="1323.5">Bit aus code_length lesen</text></g></g><g transform="translate(-10,2) scale(1,1)"><path fill="#C0C0C0" stroke="none" d="M 313 1363 L 548 1363 Q 558 1363 558 1373 L 558 1392 Q 558 1402 548 1402 L 313 1402 Q 303 1402 303 1392 L 303 1373 Q 303 1363 313 1363 Z" opacity="0.2"></path></g><g transform="translate(-10,2) scale(1,1)"><path fill="#ffffff" stroke="none" d="M 306 1356 L 541 1356 Q 551 1356 551 1366 L 551 1385 Q 551 1395 541 1395 L 306 1395 Q 296 1395 296 1385 L 296 1366 Q 296 1356 306 1356 Z"></path></g><g transform="translate(-10,2) scale(1,1)"><path fill="none" stroke="#000000" d="M 306 1356 L 541 1356 Q 551 1356 551 1366 L 551 1385 Q 551 1395 541 1395 L 306 1395 Q 296 1395 296 1385 L 296 1366 Q 296 1356 306 1356 Z" stroke-miterlimit="10"></path></g><g transform="translate(-10,2) scale(1,1)"><g><path fill="none" stroke="none"></path><text fill="#000000" stroke="none" font-family="Arial" font-size="13px" font-style="normal" font-weight="bold" text-decoration="none" x="312.5" y="1375.5">gelesenes Bit der Bitqueue hinzufügen</text></g></g><g transform="translate(-10,2) scale(1,1)"><path fill="#C0C0C0" stroke="none" d="M 365 1487 L 501 1487 Q 511 1487 511 1497 L 511 1516 Q 511 1526 501 1526 L 365 1526 Q 355 1526 355 1516 L 355 1497 Q 355 1487 365 1487 Z" opacity="0.2"></path></g><g transform="translate(-10,2) scale(1,1)"><path fill="#ffffff" stroke="none" d="M 358 1480 L 494 1480 Q 504 1480 504 1490 L 504 1509 Q 504 1519 494 1519 L 358 1519 Q 348 1519 348 1509 L 348 1490 Q 348 1480 358 1480 Z"></path></g><g transform="translate(-10,2) scale(1,1)"><path fill="none" stroke="#000000" d="M 358 1480 L 494 1480 Q 504 1480 504 1490 L 504 1509 Q 504 1519 494 1519 L 358 1519 Q 348 1519 348 1509 L 348 1490 Q 348 1480 358 1480 Z" stroke-miterlimit="10"></path></g><g transform="translate(-10,2) scale(1,1)"><g><path fill="none" stroke="none"></path><text fill="#000000" stroke="none" font-family="Arial" font-size="13px" font-style="normal" font-weight="bold" text-decoration="none" x="373.5" y="1499.5">code_length &lt;&lt; 1 </text></g></g><g transform="translate(-10,2) scale(1,1)"><path fill="#C0C0C0" stroke="none" d="M 389 1551 L 467 1551 Q 477 1551 477 1561 L 477 1580 Q 477 1590 467 1590 L 389 1590 Q 379 1590 379 1580 L 379 1561 Q 379 1551 389 1551 Z" opacity="0.2"></path></g><g transform="translate(-10,2) scale(1,1)"><path fill="#ffffff" stroke="none" d="M 382 1544 L 460 1544 Q 470 1544 470 1554 L 470 1573 Q 470 1583 460 1583 L 382 1583 Q 372 1583 372 1573 L 372 1554 Q 372 1544 382 1544 Z"></path></g><g transform="translate(-10,2) scale(1,1)"><path fill="none" stroke="#000000" d="M 382 1544 L 460 1544 Q 470 1544 470 1554 L 470 1573 Q 470 1583 460 1583 L 382 1583 Q 372 1583 372 1573 L 372 1554 Q 372 1544 382 1544 Z" stroke-miterlimit="10"></path></g><g transform="translate(-10,2) scale(1,1)"><g><path fill="none" stroke="none"></path><text fill="#000000" stroke="none" font-family="Arial" font-size="13px" font-style="normal" font-weight="bold" text-decoration="none" x="380" y="1563.5">length_shift++</text></g></g><g transform="translate(-10,2) scale(1,1)"><path fill="#C0C0C0" stroke="none" d="M 645 1363 L 880 1363 Q 890 1363 890 1373 L 890 1392 Q 890 1402 880 1402 L 645 1402 Q 635 1402 635 1392 L 635 1373 Q 635 1363 645 1363 Z" opacity="0.2"></path></g><g transform="translate(-10,2) scale(1,1)"><path fill="#ffffff" stroke="none" d="M 638 1356 L 873 1356 Q 883 1356 883 1366 L 883 1385 Q 883 1395 873 1395 L 638 1395 Q 628 1395 628 1385 L 628 1366 Q 628 1356 638 1356 Z"></path></g><g transform="translate(-10,2) scale(1,1)"><path fill="none" stroke="#000000" d="M 638 1356 L 873 1356 Q 883 1356 883 1366 L 883 1385 Q 883 1395 873 1395 L 638 1395 Q 628 1395 628 1385 L 628 1366 Q 628 1356 638 1356 Z" stroke-miterlimit="10"></path></g><g transform="translate(-10,2) scale(1,1)"><g><path fill="none" stroke="none"></path><text fill="#000000" stroke="none" font-family="Arial" font-size="13px" font-style="normal" font-weight="bold" text-decoration="none" x="644.5" y="1375.5">gelesenes Bit der Bitqueue hinzufügen</text></g></g><g transform="translate(-10,2) scale(1,1)"><path fill="#C0C0C0" stroke="none" d="M 719 1171 L 805 1171 Q 815 1171 815 1181 L 815 1200 Q 815 1210 805 1210 L 719 1210 Q 709 1210 709 1200 L 709 1181 Q 709 1171 719 1171 Z" opacity="0.2"></path></g><g transform="translate(-10,2) scale(1,1)"><path fill="#ffffff" stroke="none" d="M 712 1164 L 798 1164 Q 808 1164 808 1174 L 808 1193 Q 808 1203 798 1203 L 712 1203 Q 702 1203 702 1193 L 702 1174 Q 702 1164 712 1164 Z"></path></g><g transform="translate(-10,2) scale(1,1)"><path fill="none" stroke="#000000" d="M 712 1164 L 798 1164 Q 808 1164 808 1174 L 808 1193 Q 808 1203 798 1203 L 712 1203 Q 702 1203 702 1193 L 702 1174 Q 702 1164 712 1164 Z" stroke-miterlimit="10"></path></g><g transform="translate(-10,2) scale(1,1)"><g><path fill="none" stroke="none"></path><text fill="#000000" stroke="none" font-family="Arial" font-size="13px" font-style="normal" font-weight="bold" text-decoration="none" x="710.5" y="1183.5">code_index = 0</text></g></g><g transform="translate(-10,2) scale(1,1)"><path fill="#C0C0C0" stroke="none" d="M 710 1303 L 815 1303 Q 825 1303 825 1313 L 825 1332 Q 825 1342 815 1342 L 710 1342 Q 700 1342 700 1332 L 700 1313 Q 700 1303 710 1303 Z" opacity="0.2"></path></g><g transform="translate(-10,2) scale(1,1)"><path fill="#ffffff" stroke="none" d="M 703 1296 L 808 1296 Q 818 1296 818 1306 L 818 1325 Q 818 1335 808 1335 L 703 1335 Q 693 1335 693 1325 L 693 1306 Q 693 1296 703 1296 Z"></path></g><g transform="translate(-10,2) scale(1,1)"><path fill="none" stroke="#000000" d="M 703 1296 L 808 1296 Q 818 1296 818 1306 L 818 1325 Q 818 1335 808 1335 L 703 1335 Q 693 1335 693 1325 L 693 1306 Q 693 1296 703 1296 Z" stroke-miterlimit="10"></path></g><g transform="translate(-10,2) scale(1,1)"><g><path fill="none" stroke="none"></path><text fill="#000000" stroke="none" font-family="Arial" font-size="13px" font-style="normal" font-weight="bold" text-decoration="none" x="701.5" y="1315.5">Bit aus code lesen</text></g></g><g transform="translate(-10,2) scale(1,1)"><path fill="#C0C0C0" stroke="none" d="M 721 1551 L 804 1551 Q 814 1551 814 1561 L 814 1580 Q 814 1590 804 1590 L 721 1590 Q 711 1590 711 1580 L 711 1561 Q 711 1551 721 1551 Z" opacity="0.2"></path></g><g transform="translate(-10,2) scale(1,1)"><path fill="#ffffff" stroke="none" d="M 714 1544 L 797 1544 Q 807 1544 807 1554 L 807 1573 Q 807 1583 797 1583 L 714 1583 Q 704 1583 704 1573 L 704 1554 Q 704 1544 714 1544 Z"></path></g><g transform="translate(-10,2) scale(1,1)"><path fill="none" stroke="#000000" d="M 714 1544 L 797 1544 Q 807 1544 807 1554 L 807 1573 Q 807 1583 797 1583 L 714 1583 Q 704 1583 704 1573 L 704 1554 Q 704 1544 714 1544 Z" stroke-miterlimit="10"></path></g><g transform="translate(-10,2) scale(1,1)"><g><path fill="none" stroke="none"></path><text fill="#000000" stroke="none" font-family="Arial" font-size="13px" font-style="normal" font-weight="bold" text-decoration="none" x="712.5" y="1563.5">code_index ++</text></g></g><g transform="translate(-10,2) scale(1,1)"><path fill="#C0C0C0" stroke="none" d="M 77 1371 L 241 1371 Q 251 1371 251 1381 L 251 1400 Q 251 1410 241 1410 L 77 1410 Q 67 1410 67 1400 L 67 1381 Q 67 1371 77 1371 Z" opacity="0.2"></path></g><g transform="translate(-10,2) scale(1,1)"><path fill="#ffffff" stroke="none" d="M 70 1364 L 234 1364 Q 244 1364 244 1374 L 244 1393 Q 244 1403 234 1403 L 70 1403 Q 60 1403 60 1393 L 60 1374 Q 60 1364 70 1364 Z"></path></g><g transform="translate(-10,2) scale(1,1)"><path fill="none" stroke="#000000" d="M 70 1364 L 234 1364 Q 244 1364 244 1374 L 244 1393 Q 244 1403 234 1403 L 70 1403 Q 60 1403 60 1393 L 60 1374 Q 60 1364 70 1364 Z" stroke-miterlimit="10"></path></g><g transform="translate(-10,2) scale(1,1)"><g><path fill="none" stroke="none"></path><text fill="#000000" stroke="none" font-family="Arial" font-size="13px" font-style="normal" font-weight="bold" text-decoration="none" x="74" y="1383.5">gelesenes Bit der Bitqueue</text><text fill="#000000" stroke="none" font-family="Arial" font-size="13px" font-style="normal" font-weight="bold" text-decoration="none" x="121" y="1396.5">hinzufügen</text></g></g><g transform="translate(-10,2) scale(1,1)"><path fill="none" stroke="#000000" d="M 166.33333333333331 1054 L 166.33333333333331 1108" stroke-miterlimit="10"></path></g><g transform="translate(-10,2) scale(1,1)"><path fill="none" stroke="#000000" d="M 162.12381557731732 1097.837325142376 L 166.33333333333331 1108 L 170.5428510893493 1097.837325142376" stroke-miterlimit="10"></path></g><g transform="translate(-10,2) scale(1,1)"><g><path fill="none" stroke="none"></path><text fill="#000000" stroke="none" font-family="Arial" font-size="13px" font-style="normal" font-weight="normal" text-decoration="none" x="164" y="1065"> [char_shift = 8]</text></g></g><g transform="translate(-10,2) scale(1,1)"><path fill="none" stroke="#000000" d="M 164 1147 L 164 1168" stroke-miterlimit="10"></path></g><g transform="translate(-10,2) scale(1,1)"><path fill="none" stroke="#000000" d="M 159.790482243984 1157.837325142376 L 164 1168 L 168.209517756016 1157.837325142376" stroke-miterlimit="10"></path></g><g transform="translate(-10,2) scale(1,1)"><path fill="none" stroke="#000000" d="M 160 1207 L 160 1264" stroke-miterlimit="10"></path></g><g transform="translate(-10,2) scale(1,1)"><path fill="none" stroke="#000000" d="M 155.790482243984 1253.837325142376 L 160 1264 L 164.209517756016 1253.837325142376" stroke-miterlimit="10"></path></g><g transform="translate(-10,2) scale(1,1)"><path fill="none" stroke="#000000" d="M 158.0689655172414 1282 L 158.0689655172414 1312" stroke-miterlimit="10"></path></g><g transform="translate(-10,2) scale(1,1)"><path fill="none" stroke="#000000" d="M 153.8594477612254 1301.837325142376 L 158.0689655172414 1312 L 162.2784832732574 1301.837325142376" stroke-miterlimit="10"></path></g><g transform="translate(-10,2) scale(1,1)"><path fill="none" stroke="#000000" d="M 152.61538461538464 1351 L 152.61538461538464 1364" stroke-miterlimit="10"></path></g><g transform="translate(-10,2) scale(1,1)"><path fill="none" stroke="#000000" d="M 148.40586685936864 1353.837325142376 L 152.61538461538464 1364 L 156.82490237140064 1353.837325142376" stroke-miterlimit="10"></path></g><g transform="translate(-10,2) scale(1,1)"><path fill="none" stroke="#000000" d="M 149.66666666666669 1531 L 149.66666666666669 1552" stroke-miterlimit="10"></path></g><g transform="translate(-10,2) scale(1,1)"><path fill="none" stroke="#000000" d="M 145.4571489106507 1541.837325142376 L 149.66666666666669 1552 L 153.87618442268268 1541.837325142376" stroke-miterlimit="10"></path></g><g transform="translate(-10,2) scale(1,1)"><path fill="none" stroke="#000000" d="M 156 1591 L 156 1620" stroke-miterlimit="10"></path></g><g transform="translate(-10,2) scale(1,1)"><path fill="none" stroke="#000000" d="M 151.790482243984 1609.837325142376 L 156 1620 L 160.209517756016 1609.837325142376" stroke-miterlimit="10"></path></g><g transform="translate(-10,2) scale(1,1)"><path fill="none" stroke="#000000" d="M 156 1638 L 156 1684" stroke-miterlimit="10"></path></g><g transform="translate(-10,2) scale(1,1)"><path fill="none" stroke="#000000" d="M 151.790482243984 1673.837325142376 L 156 1684 L 160.209517756016 1673.837325142376" stroke-miterlimit="10"></path></g><g transform="translate(-10,2) scale(1,1)"><g><path fill="none" stroke="none"></path><text fill="#000000" stroke="none" font-family="Arial" font-size="13px" font-style="normal" font-weight="normal" text-decoration="none" x="156" y="1649"> [char_shift = 8]</text></g></g><g transform="translate(-10,2) scale(1,1)"><path fill="none" stroke="#000000" d="M 436 1054 L 436 1100" stroke-miterlimit="10"></path></g><g transform="translate(-10,2) scale(1,1)"><path fill="none" stroke="#000000" d="M 431.790482243984 1089.837325142376 L 436 1100 L 440.209517756016 1089.837325142376" stroke-miterlimit="10"></path></g><g transform="translate(-10,2) scale(1,1)"><g><path fill="none" stroke="none"></path><text fill="#000000" stroke="none" font-family="Arial" font-size="13px" font-style="normal" font-weight="normal" text-decoration="none" x="440" y="1065"> [length_shift = 8]</text></g></g><g transform="translate(-10,2) scale(1,1)"><path fill="none" stroke="#000000" d="M 438.3529411764706 1139 L 438.3529411764706 1168" stroke-miterlimit="10"></path></g><g transform="translate(-10,2) scale(1,1)"><path fill="none" stroke="#000000" d="M 434.1434234204546 1157.837325142376 L 438.3529411764706 1168 L 442.5624589324866 1157.837325142376" stroke-miterlimit="10"></path></g><g transform="translate(-10,2) scale(1,1)"><path fill="none" stroke="#000000" d="M 428 1207 L 428 1256" stroke-miterlimit="10"></path></g><g transform="translate(-10,2) scale(1,1)"><path fill="none" stroke="#000000" d="M 423.790482243984 1245.837325142376 L 428 1256 L 432.209517756016 1245.837325142376" stroke-miterlimit="10"></path></g><g transform="translate(-10,2) scale(1,1)"><path fill="none" stroke="#000000" d="M 426.804347826087 1274 L 426.804347826087 1304" stroke-miterlimit="10"></path></g><g transform="translate(-10,2) scale(1,1)"><path fill="none" stroke="#000000" d="M 422.594830070071 1293.837325142376 L 426.804347826087 1304 L 431.013865582103 1293.837325142376" stroke-miterlimit="10"></path></g><g transform="translate(-10,2) scale(1,1)"><path fill="none" stroke="#000000" d="M 424 1343 L 424 1356" stroke-miterlimit="10"></path></g><g transform="translate(-10,2) scale(1,1)"><path fill="none" stroke="#000000" d="M 419.790482243984 1345.837325142376 L 424 1356 L 428.209517756016 1345.837325142376" stroke-miterlimit="10"></path></g><g transform="translate(-10,2) scale(1,1)"><path fill="none" stroke="#000000" d="M 424 1519 L 424 1544" stroke-miterlimit="10"></path></g><g transform="translate(-10,2) scale(1,1)"><path fill="none" stroke="#000000" d="M 419.790482243984 1533.837325142376 L 424 1544 L 428.209517756016 1533.837325142376" stroke-miterlimit="10"></path></g><g transform="translate(-10,2) scale(1,1)"><path fill="none" stroke="#000000" d="M 748.9850746268658 1058 L 748.9850746268658 1164" stroke-miterlimit="10"></path></g><g transform="translate(-10,2) scale(1,1)"><path fill="none" stroke="#000000" d="M 744.7755568708498 1153.837325142376 L 748.9850746268658 1164 L 753.1945923828818 1153.837325142376" stroke-miterlimit="10"></path></g><g transform="translate(-10,2) scale(1,1)"><g><path fill="none" stroke="none"></path><text fill="#000000" stroke="none" font-family="Arial" font-size="13px" font-style="normal" font-weight="normal" text-decoration="none" x="748" y="1073"> [code_index = code_length - 1]</text></g></g><g transform="translate(-10,2) scale(1,1)"><path fill="none" stroke="#000000" d="M 756 1203 L 756 1248" stroke-miterlimit="10"></path></g><g transform="translate(-10,2) scale(1,1)"><path fill="none" stroke="#000000" d="M 751.790482243984 1237.837325142376 L 756 1248 L 760.209517756016 1237.837325142376" stroke-miterlimit="10"></path></g><g transform="translate(-10,2) scale(1,1)"><path fill="none" stroke="#000000" d="M 754.2692307692307 1266 L 754.2692307692307 1296" stroke-miterlimit="10"></path></g><g transform="translate(-10,2) scale(1,1)"><path fill="none" stroke="#000000" d="M 750.0597130132147 1285.837325142376 L 754.2692307692307 1296 L 758.4787485252467 1285.837325142376" stroke-miterlimit="10"></path></g><g transform="translate(-10,2) scale(1,1)"><path fill="none" stroke="#000000" d="M 756 1335 L 756 1356" stroke-miterlimit="10"></path></g><g transform="translate(-10,2) scale(1,1)"><path fill="none" stroke="#000000" d="M 751.790482243984 1345.837325142376 L 756 1356 L 760.209517756016 1345.837325142376" stroke-miterlimit="10"></path></g><g transform="translate(-10,2) scale(1,1)"><path fill="none" stroke="#000000" d="M 756 1583 L 756 1616" stroke-miterlimit="10"></path></g><g transform="translate(-10,2) scale(1,1)"><path fill="none" stroke="#000000" d="M 751.790482243984 1605.837325142376 L 756 1616 L 760.209517756016 1605.837325142376" stroke-miterlimit="10"></path></g><g transform="translate(-10,2) scale(1,1)"><path fill="none" stroke="#000000" d="M 756 1634 L 756 1688" stroke-miterlimit="10"></path></g><g transform="translate(-10,2) scale(1,1)"><path fill="none" stroke="#000000" d="M 751.790482243984 1677.837325142376 L 756 1688 L 760.209517756016 1677.837325142376" stroke-miterlimit="10"></path></g><g transform="translate(-10,2) scale(1,1)"><g><path fill="none" stroke="none"></path><text fill="#000000" stroke="none" font-family="Arial" font-size="13px" font-style="normal" font-weight="normal" text-decoration="none" x="756" y="1645"> [code_index = code_length - 1]</text></g></g><g transform="translate(-10,2) scale(1,1)"><path fill="none" stroke="#000000" d="M 156 1826 L 156 1929 L 412 1929" stroke-miterlimit="10"></path></g><g transform="translate(-10,2) scale(1,1)"><path fill="none" stroke="#000000" d="M 401.83732514237585 1933.2095177560159 L 412 1929 L 401.83732514237585 1924.7904822439841" stroke-miterlimit="10"></path></g><g transform="translate(-10,2) scale(1,1)"><path fill="none" stroke="#000000" d="M 424 1834 L 424 1920" stroke-miterlimit="10"></path></g><g transform="translate(-10,2) scale(1,1)"><path fill="none" stroke="#000000" d="M 419.790482243984 1909.837325142376 L 424 1920 L 428.209517756016 1909.837325142376" stroke-miterlimit="10"></path></g><g transform="translate(-10,2) scale(1,1)"><path fill="none" stroke="#000000" d="M 756 1890 L 756 1929 L 434 1929" stroke-miterlimit="10"></path></g><g transform="translate(-10,2) scale(1,1)"><path fill="none" stroke="#000000" d="M 444.16267485762415 1924.7904822439841 L 434 1929 L 444.16267485762415 1933.2095177560159" stroke-miterlimit="10"></path></g><g transform="translate(-10,2) scale(1,1)"><path fill="#C0C0C0" stroke="none" d="M 439 752.5 L 450.5 743 L 461 752.5 L 450.5 761 L 439 752.5" opacity="0.2"></path></g><g transform="translate(-10,2) scale(1,1)"><path fill="#ffffff" stroke="none" d="M 432 745 L 443 736 L 454 745 L 443 754 L 432 745"></path></g><g transform="translate(-10,2) scale(1,1)"><path fill="none" stroke="#000000" d="M 432 745 L 443 736 L 454 745 L 443 754 L 432 745 L 432 745" stroke-miterlimit="10"></path></g><g transform="translate(-10,2) scale(1,1)"><path fill="#C0C0C0" stroke="none" d="M 435 932.5 L 446.5 923 L 457 932.5 L 446.5 941 L 435 932.5" opacity="0.2"></path></g><g transform="translate(-10,2) scale(1,1)"><path fill="#ffffff" stroke="none" d="M 428 925 L 439 916 L 450 925 L 439 934 L 428 925"></path></g><g transform="translate(-10,2) scale(1,1)"><path fill="none" stroke="#000000" d="M 428 925 L 439 916 L 450 925 L 439 934 L 428 925 L 428 925" stroke-miterlimit="10"></path></g><g transform="translate(-10,2) scale(1,1)"><path fill="none" stroke="#000000" d="M 432 744 L 312 744 L 312 924 L 428 924" stroke-miterlimit="10"></path></g><g transform="translate(-10,2) scale(1,1)"><path fill="none" stroke="#000000" d="M 417.83732514237585 928.209517756016 L 428 924 L 417.83732514237585 919.790482243984" stroke-miterlimit="10"></path></g><g transform="translate(-10,2) scale(1,1)"><path fill="#C0C0C0" stroke="none" d="M 439 528.5 L 450.5 519 L 461 528.5 L 450.5 537 L 439 528.5" opacity="0.2"></path></g><g transform="translate(-10,2) scale(1,1)"><path fill="#ffffff" stroke="none" d="M 432 521 L 443 512 L 454 521 L 443 530 L 432 521"></path></g><g transform="translate(-10,2) scale(1,1)"><path fill="none" stroke="#000000" d="M 432 521 L 443 512 L 454 521 L 443 530 L 432 521 L 432 521" stroke-miterlimit="10"></path></g><g transform="translate(-10,2) scale(1,1)"><path fill="#C0C0C0" stroke="none" d="M 439 564.5 L 450.5 555 L 461 564.5 L 450.5 573 L 439 564.5" opacity="0.2"></path></g><g transform="translate(-10,2) scale(1,1)"><path fill="#ffffff" stroke="none" d="M 432 557 L 443 548 L 454 557 L 443 566 L 432 557"></path></g><g transform="translate(-10,2) scale(1,1)"><path fill="none" stroke="#000000" d="M 432 557 L 443 548 L 454 557 L 443 566 L 432 557 L 432 557" stroke-miterlimit="10"></path></g><g transform="translate(-10,2) scale(1,1)"><path fill="#C0C0C0" stroke="none" d="M 301 443 L 599 443 Q 609 443 609 453 L 609 472 Q 609 482 599 482 L 301 482 Q 291 482 291 472 L 291 453 Q 291 443 301 443 Z" opacity="0.2"></path></g><g transform="translate(-10,2) scale(1,1)"><path fill="#ffffff" stroke="none" d="M 294 436 L 592 436 Q 602 436 602 446 L 602 465 Q 602 475 592 475 L 294 475 Q 284 475 284 465 L 284 446 Q 284 436 294 436 Z"></path></g><g transform="translate(-10,2) scale(1,1)"><path fill="none" stroke="#000000" d="M 294 436 L 592 436 Q 602 436 602 446 L 602 465 Q 602 475 592 475 L 294 475 Q 284 475 284 465 L 284 446 Q 284 436 294 436 Z" stroke-miterlimit="10"></path></g><g transform="translate(-10,2) scale(1,1)"><g><path fill="none" stroke="none"></path><text fill="#000000" stroke="none" font-family="Arial" font-size="13px" font-style="normal" font-weight="bold" text-decoration="none" x="302.5" y="455.5">number_of_elements in output_stream schreiben</text></g></g><g transform="translate(-10,2) scale(1,1)"><path fill="none" stroke="#000000" d="M 424 1938 L 424 1988 L 20 1988 L 20 521 L 432 521" stroke-miterlimit="10"></path></g><g transform="translate(-10,2) scale(1,1)"><path fill="none" stroke="#000000" d="M 421.83732514237585 525.209517756016 L 432 521 L 421.83732514237585 516.790482243984" stroke-miterlimit="10"></path></g><g transform="translate(-10,2) scale(1,1)"><path fill="#C0C0C0" stroke="none" d="M 736 1747 L 785 1747 Q 795 1747 795 1757 L 795 1776 Q 795 1786 785 1786 L 736 1786 Q 726 1786 726 1776 L 726 1757 Q 726 1747 736 1747 Z" opacity="0.2"></path></g><g transform="translate(-10,2) scale(1,1)"><path fill="#ffffff" stroke="none" d="M 729 1740 L 778 1740 Q 788 1740 788 1750 L 788 1769 Q 788 1779 778 1779 L 729 1779 Q 719 1779 719 1769 L 719 1750 Q 719 1740 729 1740 Z"></path></g><g transform="translate(-10,2) scale(1,1)"><path fill="none" stroke="#000000" d="M 729 1740 L 778 1740 Q 788 1740 788 1750 L 788 1769 Q 788 1779 778 1779 L 729 1779 Q 719 1779 719 1769 L 719 1750 Q 719 1740 729 1740 Z" stroke-miterlimit="10"></path></g><g transform="translate(-10,2) scale(1,1)"><g><path fill="none" stroke="none"></path><text fill="#000000" stroke="none" font-family="Arial" font-size="13px" font-style="normal" font-weight="bold" text-decoration="none" x="726" y="1759.5">index  ++</text></g></g><g transform="translate(-10,2) scale(1,1)"><path fill="#C0C0C0" stroke="none" d="M 693 1811 L 835 1811 Q 845 1811 845 1821 L 845 1840 Q 845 1850 835 1850 L 693 1850 Q 683 1850 683 1840 L 683 1821 Q 683 1811 693 1811 Z" opacity="0.2"></path></g><g transform="translate(-10,2) scale(1,1)"><path fill="#ffffff" stroke="none" d="M 686 1804 L 828 1804 Q 838 1804 838 1814 L 838 1833 Q 838 1843 828 1843 L 686 1843 Q 676 1843 676 1833 L 676 1814 Q 676 1804 686 1804 Z"></path></g><g transform="translate(-10,2) scale(1,1)"><path fill="none" stroke="#000000" d="M 686 1804 L 828 1804 Q 838 1804 838 1814 L 838 1833 Q 838 1843 828 1843 L 686 1843 Q 676 1843 676 1833 L 676 1814 Q 676 1804 686 1804 Z" stroke-miterlimit="10"></path></g><g transform="translate(-10,2) scale(1,1)"><g><path fill="none" stroke="none"></path><text fill="#000000" stroke="none" font-family="Arial" font-size="13px" font-style="normal" font-weight="bold" text-decoration="none" x="688" y="1823.5">number_of_elements ??</text></g></g><g transform="translate(-10,2) scale(1,1)"><path fill="#C0C0C0" stroke="none" d="M 615 815.5 C 615 808.59644 620.59644 803 627.5 803 C 634.40356 803 640 808.59644 640 815.5 C 640 822.40356 634.40356 828 627.5 828 C 620.59644 828 615 822.40356 615 815.5 Z" opacity="0.2"></path></g><g transform="translate(-10,2) scale(1,1)"><path fill="none" stroke="#000000" d="M 608 808.5 C 608 801.59644 613.59644 796 620.5 796 C 627.40356 796 633 801.59644 633 808.5 C 633 815.40356 627.40356 821 620.5 821 C 613.59644 821 608 815.40356 608 808.5 Z" stroke-miterlimit="10"></path></g><g transform="translate(-10,2) scale(1,1)"><path fill="#000000" stroke="none" d="M 613 808.5 C 613 804.357864 616.357864 801 620.5 801 C 624.642136 801 628 804.357864 628 808.5 C 628 812.642136 624.642136 816 620.5 816 C 616.357864 816 613 812.642136 613 808.5 Z"></path></g><g transform="translate(-10,2) scale(1,1)"><path fill="#C0C0C0" stroke="none" d="M 757 675 L 914 675 Q 924 675 924 685 L 924 704 Q 924 714 914 714 L 757 714 Q 747 714 747 704 L 747 685 Q 747 675 757 675 Z" opacity="0.2"></path></g><g transform="translate(-10,2) scale(1,1)"><path fill="#ffffff" stroke="none" d="M 750 668 L 907 668 Q 917 668 917 678 L 917 697 Q 917 707 907 707 L 750 707 Q 740 707 740 697 L 740 678 Q 740 668 750 668 Z"></path></g><g transform="translate(-10,2) scale(1,1)"><path fill="none" stroke="#000000" d="M 750 668 L 907 668 Q 917 668 917 678 L 917 697 Q 917 707 907 707 L 750 707 Q 740 707 740 697 L 740 678 Q 740 668 750 668 Z" stroke-miterlimit="10"></path></g><g transform="translate(-10,2) scale(1,1)"><g><path fill="none" stroke="none"></path><text fill="#000000" stroke="none" font-family="Arial" font-size="13px" font-style="normal" font-weight="bold" text-decoration="none" x="753.5" y="687.5">0 der Bitqueue hinzufügen</text></g></g><g transform="translate(-10,2) scale(1,1)"><path fill="#C0C0C0" stroke="none" d="M 545 675 L 705 675 Q 715 675 715 685 L 715 704 Q 715 714 705 714 L 545 714 Q 535 714 535 704 L 535 685 Q 535 675 545 675 Z" opacity="0.2"></path></g><g transform="translate(-10,2) scale(1,1)"><path fill="#ffffff" stroke="none" d="M 538 668 L 698 668 Q 708 668 708 678 L 708 697 Q 708 707 698 707 L 538 707 Q 528 707 528 697 L 528 678 Q 528 668 538 668 Z"></path></g><g transform="translate(-10,2) scale(1,1)"><path fill="none" stroke="#000000" d="M 538 668 L 698 668 Q 708 668 708 678 L 708 697 Q 708 707 698 707 L 538 707 Q 528 707 528 697 L 528 678 Q 528 668 538 668 Z" stroke-miterlimit="10"></path></g><g transform="translate(-10,2) scale(1,1)"><g><path fill="none" stroke="none"></path><text fill="#000000" stroke="none" font-family="Arial" font-size="13px" font-style="normal" font-weight="bold" text-decoration="none" x="557.5" y="687.5">Byte aus Bitqueue in</text><text fill="#000000" stroke="none" font-family="Arial" font-size="13px" font-style="normal" font-weight="bold" text-decoration="none" x="546.5" y="700.5">output_stream schreiben</text></g></g><g transform="translate(-10,2) scale(1,1)"><path fill="#C0C0C0" stroke="none" d="M 615 600.5 L 626.5 591 L 637 600.5 L 626.5 609 L 615 600.5" opacity="0.2"></path></g><g transform="translate(-10,2) scale(1,1)"><path fill="#ffffff" stroke="none" d="M 608 593 L 619 584 L 630 593 L 619 602 L 608 593"></path></g><g transform="translate(-10,2) scale(1,1)"><path fill="none" stroke="#000000" d="M 608 593 L 619 584 L 630 593 L 619 602 L 608 593 L 608 593" stroke-miterlimit="10"></path></g><g transform="translate(-10,2) scale(1,1)"><path fill="#C0C0C0" stroke="none" d="M 615 648.5 L 626.5 639 L 637 648.5 L 626.5 657 L 615 648.5" opacity="0.2"></path></g><g transform="translate(-10,2) scale(1,1)"><path fill="#ffffff" stroke="none" d="M 608 641 L 619 632 L 630 641 L 619 650 L 608 641"></path></g><g transform="translate(-10,2) scale(1,1)"><path fill="none" stroke="#000000" d="M 608 641 L 619 632 L 630 641 L 619 650 L 608 641 L 608 641" stroke-miterlimit="10"></path></g><g transform="translate(-10,2) scale(1,1)"><path fill="none" stroke="#000000" d="M 619 602 L 619 632" stroke-miterlimit="10"></path></g><g transform="translate(-10,2) scale(1,1)"><path fill="none" stroke="#000000" d="M 614.790482243984 621.8373251423759 L 619 632 L 623.209517756016 621.8373251423759" stroke-miterlimit="10"></path></g><g transform="translate(-10,2) scale(1,1)"><path fill="none" stroke="#000000" d="M 620 650 L 620 668" stroke-miterlimit="10"></path></g><g transform="translate(-10,2) scale(1,1)"><path fill="none" stroke="#000000" d="M 615.790482243984 657.8373251423759 L 620 668 L 624.209517756016 657.8373251423759" stroke-miterlimit="10"></path></g><g transform="translate(-10,2) scale(1,1)"><path fill="none" stroke="#000000" d="M 620 707 L 620 796" stroke-miterlimit="10"></path></g><g transform="translate(-10,2) scale(1,1)"><path fill="none" stroke="#000000" d="M 615.790482243984 785.8373251423759 L 620 796 L 624.209517756016 785.8373251423759" stroke-miterlimit="10"></path></g><g transform="translate(-10,2) scale(1,1)"><path fill="none" stroke="#000000" d="M 438.25 934 L 438.25 964" stroke-miterlimit="10"></path></g><g transform="translate(-10,2) scale(1,1)"><path fill="none" stroke="#000000" d="M 434.040482243984 953.8373251423759 L 438.25 964 L 442.459517756016 953.8373251423759" stroke-miterlimit="10"></path></g><g transform="translate(-10,2) scale(1,1)"><path fill="none" stroke="#000000" d="M 440 895 L 440 916" stroke-miterlimit="10"></path></g><g transform="translate(-10,2) scale(1,1)"><path fill="none" stroke="#000000" d="M 435.790482243984 905.8373251423759 L 440 916 L 444.209517756016 905.8373251423759" stroke-miterlimit="10"></path></g><g transform="translate(-10,2) scale(1,1)"><path fill="none" stroke="#000000" d="M 440 823 L 440 856" stroke-miterlimit="10"></path></g><g transform="translate(-10,2) scale(1,1)"><path fill="none" stroke="#000000" d="M 435.790482243984 845.8373251423759 L 440 856 L 444.209517756016 845.8373251423759" stroke-miterlimit="10"></path></g><g transform="translate(-10,2) scale(1,1)"><path fill="none" stroke="#000000" d="M 441.94827586206895 754 L 441.94827586206895 784" stroke-miterlimit="10"></path></g><g transform="translate(-10,2) scale(1,1)"><path fill="none" stroke="#000000" d="M 437.73875810605296 773.8373251423759 L 441.94827586206895 784 L 446.15779361808495 773.8373251423759" stroke-miterlimit="10"></path></g><g transform="translate(-10,2) scale(1,1)"><g><path fill="none" stroke="none"></path><text fill="#000000" stroke="none" font-family="Arial" font-size="13px" font-style="normal" font-weight="normal" text-decoration="none" x="442" y="769"> [queue_usage = 8]</text></g></g><g transform="translate(-10,2) scale(1,1)"><path fill="none" stroke="#000000" d="M 443 566 L 443 736" stroke-miterlimit="10"></path></g><g transform="translate(-10,2) scale(1,1)"><path fill="none" stroke="#000000" d="M 438.790482243984 725.8373251423759 L 443 736 L 447.209517756016 725.8373251423759" stroke-miterlimit="10"></path></g><g transform="translate(-10,2) scale(1,1)"><path fill="none" stroke="#000000" d="M 443 530 L 443 548" stroke-miterlimit="10"></path></g><g transform="translate(-10,2) scale(1,1)"><path fill="none" stroke="#000000" d="M 438.790482243984 537.8373251423759 L 443 548 L 447.209517756016 537.8373251423759" stroke-miterlimit="10"></path></g><g transform="translate(-10,2) scale(1,1)"><path fill="none" stroke="#000000" d="M 454 557 L 619 557 L 619 584" stroke-miterlimit="10"></path></g><g transform="translate(-10,2) scale(1,1)"><path fill="none" stroke="#000000" d="M 614.790482243984 573.8373251423759 L 619 584 L 623.209517756016 573.8373251423759" stroke-miterlimit="10"></path></g><g transform="translate(-10,2) scale(1,1)"><g><path fill="none" stroke="none"></path><text fill="#000000" stroke="none" font-family="Arial" font-size="13px" font-style="normal" font-weight="normal" text-decoration="none" x="452" y="551"> [index = number_of_elements]</text></g></g><g transform="translate(-10,2) scale(1,1)"><path fill="none" stroke="#000000" d="M 443 475 L 443 512" stroke-miterlimit="10"></path></g><g transform="translate(-10,2) scale(1,1)"><path fill="none" stroke="#000000" d="M 438.790482243984 501.83732514237585 L 443 512 L 447.209517756016 501.83732514237585" stroke-miterlimit="10"></path></g><g transform="translate(-10,2) scale(1,1)"><path fill="none" stroke="#000000" d="M 424 1583 L 424 1620" stroke-miterlimit="10"></path></g><g transform="translate(-10,2) scale(1,1)"><path fill="none" stroke="#000000" d="M 419.790482243984 1609.837325142376 L 424 1620 L 428.209517756016 1609.837325142376" stroke-miterlimit="10"></path></g><g transform="translate(-10,2) scale(1,1)"><path fill="none" stroke="#000000" d="M 423 1638 L 423 1676" stroke-miterlimit="10"></path></g><g transform="translate(-10,2) scale(1,1)"><path fill="none" stroke="#000000" d="M 418.790482243984 1665.837325142376 L 423 1676 L 427.209517756016 1665.837325142376" stroke-miterlimit="10"></path></g><g transform="translate(-10,2) scale(1,1)"><g><path fill="none" stroke="none"></path><text fill="#000000" stroke="none" font-family="Arial" font-size="13px" font-style="normal" font-weight="normal" text-decoration="none" x="424" y="1649"> [length_shift = 8]</text></g></g><g transform="translate(-10,2) scale(1,1)"><path fill="none" stroke="#000000" d="M 423.8888888888889 1715 L 423.8888888888889 1816" stroke-miterlimit="10"></path></g><g transform="translate(-10,2) scale(1,1)"><path fill="none" stroke="#000000" d="M 419.6793711328729 1805.837325142376 L 423.8888888888889 1816 L 428.0984066449049 1805.837325142376" stroke-miterlimit="10"></path></g><g transform="translate(-10,2) scale(1,1)"><path fill="none" stroke="#000000" d="M 156 1723 L 156 1808" stroke-miterlimit="10"></path></g><g transform="translate(-10,2) scale(1,1)"><path fill="none" stroke="#000000" d="M 151.790482243984 1797.837325142376 L 156 1808 L 160.209517756016 1797.837325142376" stroke-miterlimit="10"></path></g><g transform="translate(-10,2) scale(1,1)"><path fill="none" stroke="#000000" d="M 756 1727 L 756 1740" stroke-miterlimit="10"></path></g><g transform="translate(-10,2) scale(1,1)"><path fill="none" stroke="#000000" d="M 751.790482243984 1729.837325142376 L 756 1740 L 760.209517756016 1729.837325142376" stroke-miterlimit="10"></path></g><g transform="translate(-10,2) scale(1,1)"><path fill="none" stroke="#000000" d="M 756 1779 L 756 1804" stroke-miterlimit="10"></path></g><g transform="translate(-10,2) scale(1,1)"><path fill="none" stroke="#000000" d="M 751.790482243984 1793.837325142376 L 756 1804 L 760.209517756016 1793.837325142376" stroke-miterlimit="10"></path></g><g transform="translate(-10,2) scale(1,1)"><path fill="none" stroke="#000000" d="M 756 1843 L 756 1872" stroke-miterlimit="10"></path></g><g transform="translate(-10,2) scale(1,1)"><path fill="none" stroke="#000000" d="M 751.790482243984 1861.837325142376 L 756 1872 L 760.209517756016 1861.837325142376" stroke-miterlimit="10"></path></g><g transform="translate(-10,2) scale(1,1)"><path fill="#C0C0C0" stroke="none" d="M 121 1427 L 215 1427 Q 225 1427 225 1437 L 225 1456 Q 225 1466 215 1466 L 121 1466 Q 111 1466 111 1456 L 111 1437 Q 111 1427 121 1427 Z" opacity="0.2"></path></g><g transform="translate(-10,2) scale(1,1)"><path fill="#ffffff" stroke="none" d="M 114 1420 L 208 1420 Q 218 1420 218 1430 L 218 1449 Q 218 1459 208 1459 L 114 1459 Q 104 1459 104 1449 L 104 1430 Q 104 1420 114 1420 Z"></path></g><g transform="translate(-10,2) scale(1,1)"><path fill="none" stroke="#000000" d="M 114 1420 L 208 1420 Q 218 1420 218 1430 L 218 1449 Q 218 1459 208 1459 L 114 1459 Q 104 1459 104 1449 L 104 1430 Q 104 1420 114 1420 Z" stroke-miterlimit="10"></path></g><g transform="translate(-10,2) scale(1,1)"><g><path fill="none" stroke="none"></path><text fill="#000000" stroke="none" font-family="Arial" font-size="13px" font-style="normal" font-weight="bold" text-decoration="none" x="112.5" y="1439.5">queue_usage ++</text></g></g><g transform="translate(-10,2) scale(1,1)"><path fill="#C0C0C0" stroke="none" d="M 377 1423 L 471 1423 Q 481 1423 481 1433 L 481 1452 Q 481 1462 471 1462 L 377 1462 Q 367 1462 367 1452 L 367 1433 Q 367 1423 377 1423 Z" opacity="0.2"></path></g><g transform="translate(-10,2) scale(1,1)"><path fill="#ffffff" stroke="none" d="M 370 1416 L 464 1416 Q 474 1416 474 1426 L 474 1445 Q 474 1455 464 1455 L 370 1455 Q 360 1455 360 1445 L 360 1426 Q 360 1416 370 1416 Z"></path></g><g transform="translate(-10,2) scale(1,1)"><path fill="none" stroke="#000000" d="M 370 1416 L 464 1416 Q 474 1416 474 1426 L 474 1445 Q 474 1455 464 1455 L 370 1455 Q 360 1455 360 1445 L 360 1426 Q 360 1416 370 1416 Z" stroke-miterlimit="10"></path></g><g transform="translate(-10,2) scale(1,1)"><g><path fill="none" stroke="none"></path><text fill="#000000" stroke="none" font-family="Arial" font-size="13px" font-style="normal" font-weight="bold" text-decoration="none" x="368.5" y="1435.5">queue_usage ++</text></g></g><g transform="translate(-10,2) scale(1,1)"><path fill="#C0C0C0" stroke="none" d="M 717 1427 L 811 1427 Q 821 1427 821 1437 L 821 1456 Q 821 1466 811 1466 L 717 1466 Q 707 1466 707 1456 L 707 1437 Q 707 1427 717 1427 Z" opacity="0.2"></path></g><g transform="translate(-10,2) scale(1,1)"><path fill="#ffffff" stroke="none" d="M 710 1420 L 804 1420 Q 814 1420 814 1430 L 814 1449 Q 814 1459 804 1459 L 710 1459 Q 700 1459 700 1449 L 700 1430 Q 700 1420 710 1420 Z"></path></g><g transform="translate(-10,2) scale(1,1)"><path fill="none" stroke="#000000" d="M 710 1420 L 804 1420 Q 814 1420 814 1430 L 814 1449 Q 814 1459 804 1459 L 710 1459 Q 700 1459 700 1449 L 700 1430 Q 700 1420 710 1420 Z" stroke-miterlimit="10"></path></g><g transform="translate(-10,2) scale(1,1)"><g><path fill="none" stroke="none"></path><text fill="#000000" stroke="none" font-family="Arial" font-size="13px" font-style="normal" font-weight="bold" text-decoration="none" x="708.5" y="1439.5">queue_usage ++</text></g></g><g transform="translate(-10,2) scale(1,1)"><path fill="none" stroke="#000000" d="M 155.21428571428572 1403 L 155.21428571428572 1420" stroke-miterlimit="10"></path></g><g transform="translate(-10,2) scale(1,1)"><path fill="none" stroke="#000000" d="M 151.00476795826972 1409.837325142376 L 155.21428571428572 1420 L 159.42380347030172 1409.837325142376" stroke-miterlimit="10"></path></g><g transform="translate(-10,2) scale(1,1)"><path fill="none" stroke="#000000" d="M 157.38888888888889 1459 L 157.38888888888889 1492" stroke-miterlimit="10"></path></g><g transform="translate(-10,2) scale(1,1)"><path fill="none" stroke="#000000" d="M 153.1793711328729 1481.837325142376 L 157.38888888888889 1492 L 161.59840664490488 1481.837325142376" stroke-miterlimit="10"></path></g><g transform="translate(-10,2) scale(1,1)"><path fill="none" stroke="#000000" d="M 419.8125 1455 L 419.8125 1480" stroke-miterlimit="10"></path></g><g transform="translate(-10,2) scale(1,1)"><path fill="none" stroke="#000000" d="M 415.602982243984 1469.837325142376 L 419.8125 1480 L 424.022017756016 1469.837325142376" stroke-miterlimit="10"></path></g><g transform="translate(-10,2) scale(1,1)"><path fill="none" stroke="#000000" d="M 421 1395 L 421 1416" stroke-miterlimit="10"></path></g><g transform="translate(-10,2) scale(1,1)"><path fill="none" stroke="#000000" d="M 416.790482243984 1405.837325142376 L 421 1416 L 425.209517756016 1405.837325142376" stroke-miterlimit="10"></path></g><g transform="translate(-10,2) scale(1,1)"><path fill="none" stroke="#000000" d="M 755.625 1395 L 755.625 1420" stroke-miterlimit="10"></path></g><g transform="translate(-10,2) scale(1,1)"><path fill="none" stroke="#000000" d="M 751.415482243984 1409.837325142376 L 755.625 1420 L 759.834517756016 1409.837325142376" stroke-miterlimit="10"></path></g><g transform="translate(-10,2) scale(1,1)"><path fill="none" stroke="#000000" d="M 756.6774193548387 1459 L 756.6774193548387 1544" stroke-miterlimit="10"></path></g><g transform="translate(-10,2) scale(1,1)"><path fill="none" stroke="#000000" d="M 752.4679015988227 1533.837325142376 L 756.6774193548387 1544 L 760.8869371108547 1533.837325142376" stroke-miterlimit="10"></path></g><g transform="translate(-10,2) scale(1,1)"><path fill="#C0C0C0" stroke="none" d="M 789 747 L 883 747 Q 893 747 893 757 L 893 776 Q 893 786 883 786 L 789 786 Q 779 786 779 776 L 779 757 Q 779 747 789 747 Z" opacity="0.2"></path></g><g transform="translate(-10,2) scale(1,1)"><path fill="#ffffff" stroke="none" d="M 782 740 L 876 740 Q 886 740 886 750 L 886 769 Q 886 779 876 779 L 782 779 Q 772 779 772 769 L 772 750 Q 772 740 782 740 Z"></path></g><g transform="translate(-10,2) scale(1,1)"><path fill="none" stroke="#000000" d="M 782 740 L 876 740 Q 886 740 886 750 L 886 769 Q 886 779 876 779 L 782 779 Q 772 779 772 769 L 772 750 Q 772 740 782 740 Z" stroke-miterlimit="10"></path></g><g transform="translate(-10,2) scale(1,1)"><g><path fill="none" stroke="none"></path><text fill="#000000" stroke="none" font-family="Arial" font-size="13px" font-style="normal" font-weight="bold" text-decoration="none" x="780.5" y="759.5">queue_usage ++</text></g></g><g transform="translate(-10,2) scale(1,1)"><path fill="none" stroke="#000000" d="M 828.3571428571429 707 L 828.3571428571429 740" stroke-miterlimit="10"></path></g><g transform="translate(-10,2) scale(1,1)"><path fill="none" stroke="#000000" d="M 824.1476251011269 729.8373251423759 L 828.3571428571429 740 L 832.5666606131589 729.8373251423759" stroke-miterlimit="10"></path></g><g transform="translate(-10,2) scale(1,1)"><path fill="#C0C0C0" stroke="none" d="M 413 231 L 498 231 Q 508 231 508 241 L 508 260 Q 508 270 498 270 L 413 270 Q 403 270 403 260 L 403 241 Q 403 231 413 231 Z" opacity="0.2"></path></g><g transform="translate(-10,2) scale(1,1)"><path fill="#ffffff" stroke="none" d="M 406 224 L 491 224 Q 501 224 501 234 L 501 253 Q 501 263 491 263 L 406 263 Q 396 263 396 253 L 396 234 Q 396 224 406 224 Z"></path></g><g transform="translate(-10,2) scale(1,1)"><path fill="none" stroke="#000000" d="M 406 224 L 491 224 Q 501 224 501 234 L 501 253 Q 501 263 491 263 L 406 263 Q 396 263 396 253 L 396 234 Q 396 224 406 224 Z" stroke-miterlimit="10"></path></g><g transform="translate(-10,2) scale(1,1)"><g><path fill="none" stroke="none"></path><text fill="#000000" stroke="none" font-family="Arial" font-size="13px" font-style="normal" font-weight="bold" text-decoration="none" x="409" y="243.5">char_shift = 0</text></g></g><g transform="translate(-10,2) scale(1,1)"><path fill="#C0C0C0" stroke="none" d="M 413 287 L 498 287 Q 508 287 508 297 L 508 316 Q 508 326 498 326 L 413 326 Q 403 326 403 316 L 403 297 Q 403 287 413 287 Z" opacity="0.2"></path></g><g transform="translate(-10,2) scale(1,1)"><path fill="#ffffff" stroke="none" d="M 406 280 L 491 280 Q 501 280 501 290 L 501 309 Q 501 319 491 319 L 406 319 Q 396 319 396 309 L 396 290 Q 396 280 406 280 Z"></path></g><g transform="translate(-10,2) scale(1,1)"><path fill="none" stroke="#000000" d="M 406 280 L 491 280 Q 501 280 501 290 L 501 309 Q 501 319 491 319 L 406 319 Q 396 319 396 309 L 396 290 Q 396 280 406 280 Z" stroke-miterlimit="10"></path></g><g transform="translate(-10,2) scale(1,1)"><g><path fill="none" stroke="none"></path><text fill="#000000" stroke="none" font-family="Arial" font-size="13px" font-style="normal" font-weight="bold" text-decoration="none" x="404" y="299.5">length_shift = 0</text></g></g><g transform="translate(-10,2) scale(1,1)"><path fill="#C0C0C0" stroke="none" d="M 413 343 L 499 343 Q 509 343 509 353 L 509 372 Q 509 382 499 382 L 413 382 Q 403 382 403 372 L 403 353 Q 403 343 413 343 Z" opacity="0.2"></path></g><g transform="translate(-10,2) scale(1,1)"><path fill="#ffffff" stroke="none" d="M 406 336 L 492 336 Q 502 336 502 346 L 502 365 Q 502 375 492 375 L 406 375 Q 396 375 396 365 L 396 346 Q 396 336 406 336 Z"></path></g><g transform="translate(-10,2) scale(1,1)"><path fill="none" stroke="#000000" d="M 406 336 L 492 336 Q 502 336 502 346 L 502 365 Q 502 375 492 375 L 406 375 Q 396 375 396 365 L 396 346 Q 396 336 406 336 Z" stroke-miterlimit="10"></path></g><g transform="translate(-10,2) scale(1,1)"><g><path fill="none" stroke="none"></path><text fill="#000000" stroke="none" font-family="Arial" font-size="13px" font-style="normal" font-weight="bold" text-decoration="none" x="404.5" y="355.5">code_index = 0</text></g></g><g transform="translate(-10,2) scale(1,1)"><path fill="none" stroke="#000000" d="M 448 155 L 448 172" stroke-miterlimit="10"></path></g><g transform="translate(-10,2) scale(1,1)"><path fill="none" stroke="#000000" d="M 443.790482243984 161.83732514237585 L 448 172 L 452.209517756016 161.83732514237585" stroke-miterlimit="10"></path></g><g transform="translate(-10,2) scale(1,1)"><path fill="none" stroke="#000000" d="M 448 211 L 448 224" stroke-miterlimit="10"></path></g><g transform="translate(-10,2) scale(1,1)"><path fill="none" stroke="#000000" d="M 443.790482243984 213.83732514237585 L 448 224 L 452.209517756016 213.83732514237585" stroke-miterlimit="10"></path></g><g transform="translate(-10,2) scale(1,1)"><path fill="none" stroke="#000000" d="M 448 263 L 448 280" stroke-miterlimit="10"></path></g><g transform="translate(-10,2) scale(1,1)"><path fill="none" stroke="#000000" d="M 443.790482243984 269.83732514237585 L 448 280 L 452.209517756016 269.83732514237585" stroke-miterlimit="10"></path></g><g transform="translate(-10,2) scale(1,1)"><path fill="none" stroke="#000000" d="M 448.35714285714283 319 L 448.35714285714283 336" stroke-miterlimit="10"></path></g><g transform="translate(-10,2) scale(1,1)"><path fill="none" stroke="#000000" d="M 444.14762510112683 325.83732514237585 L 448.35714285714283 336 L 452.56666061315883 325.83732514237585" stroke-miterlimit="10"></path></g><g transform="translate(-10,2) scale(1,1)"><path fill="none" stroke="#000000" d="M 447.8 375 L 447.8 436" stroke-miterlimit="10"></path></g><g transform="translate(-10,2) scale(1,1)"><path fill="none" stroke="#000000" d="M 443.590482243984 425.83732514237585 L 447.8 436 L 452.009517756016 425.83732514237585" stroke-miterlimit="10"></path></g><g transform="translate(-10,2) scale(1,1)"><path fill="none" stroke="#000000" d="M 630 640 L 828 640 L 828 668" stroke-miterlimit="10"></path></g><g transform="translate(-10,2) scale(1,1)"><path fill="none" stroke="#000000" d="M 823.790482243984 657.8373251423759 L 828 668 L 832.209517756016 657.8373251423759" stroke-miterlimit="10"></path></g><g transform="translate(-10,2) scale(1,1)"><g><path fill="none" stroke="none"></path><text fill="#000000" stroke="none" font-family="Arial" font-size="13px" font-style="normal" font-weight="normal" text-decoration="none" x="632" y="632"> [queue_usage != 8]</text></g></g><g transform="translate(-10,2) scale(1,1)"><path fill="none" stroke="#000000" d="M 828 779 L 828 804 L 932 804 L 932 592 L 630 592" stroke-miterlimit="10"></path></g><g transform="translate(-10,2) scale(1,1)"><path fill="none" stroke="#000000" d="M 640.1626748576241 587.790482243984 L 630 592 L 640.1626748576241 596.209517756016" stroke-miterlimit="10"></path></g></g></svg>